<?xml version="1.0" encoding="UTF-8" standalone="no"?>
<svg
   xmlns:dc="http://purl.org/dc/elements/1.1/"
   xmlns:cc="http://creativecommons.org/ns#"
   xmlns:rdf="http://www.w3.org/1999/02/22-rdf-syntax-ns#"
   xmlns:svg="http://www.w3.org/2000/svg"
   xmlns="http://www.w3.org/2000/svg"
   viewBox="0 0 816 1056"
   height="1056"
   width="816"
   xml:space="preserve"
   id="svg2"
   version="1.1"><metadata
     id="metadata8"><rdf:RDF><cc:Work
         rdf:about=""><dc:format>image/svg+xml</dc:format><dc:type
           rdf:resource="http://purl.org/dc/dcmitype/StillImage" /></cc:Work></rdf:RDF></metadata><defs
     id="defs6" /><g
     transform="matrix(1.3333333,0,0,-1.3333333,0,1056)"
     id="g10"><g
       id="g12"><text
         id="text16"
         style="font-variant:normal;font-weight:bold;font-size:20.66250038px;font-family:Roboto;-inkscape-font-specification:Roboto-Bold;writing-mode:lr-tb;fill:#000000;fill-opacity:1;fill-rule:nonzero;stroke:none"
         transform="matrix(1,0,0,-1,245.738,740.619)"><tspan
           id="tspan14"
           y="0"
           x="0 11.542072 23.104807 33.729465 40.711323 46.188953 62.906982 74.227966 79.705597 91.388168 98.737823 109.90591">JustinFlores</tspan></text>
<text
         id="text20"
         style="font-variant:normal;font-weight:normal;font-size:9.96259975px;font-family:FontAwesome;-inkscape-font-specification:FontAwesome;writing-mode:lr-tb;fill:#000000;fill-opacity:1;fill-rule:nonzero;stroke:none"
         transform="matrix(1,0,0,-1,79.131,728.664)"><tspan
           id="tspan18"
           y="0"
           x="0"></tspan></text>
<text
         id="text24"
         style="font-variant:normal;font-weight:normal;font-size:9.96259975px;font-family:Roboto;-inkscape-font-specification:Roboto-Regular;writing-mode:lr-tb;fill:#000000;fill-opacity:1;fill-rule:nonzero;stroke:none"
         transform="matrix(1,0,0,-1,89.093,728.664)"><tspan
           id="tspan22"
           y="0"
           x="0 4.8836665 7.2627354 12.755116 17.891834 21.146614 23.564537 29.061901 31.684057 37.341816 43.023487 46.295204 51.573391 56.71011 65.655525 71.147911 76.362335 81.780991 84.198914 89.787933 95.206589 98.667595 102.86285 105.48501 110.69943">:justin.ﬂores@ucalgary.ca</tspan></text>
<text
         id="text28"
         style="font-variant:normal;font-size:9.5642004px;font-family:MathDesign-CH-Regular-Symbol;-inkscape-font-specification:MathDesign-CH-Regular-Symbol-10;writing-mode:lr-tb;fill:#000000;fill-opacity:1;fill-rule:nonzero;stroke:none"
         transform="matrix(1,0,0,-1,207.677,728.664)"><tspan
           id="tspan26"
           y="0"
           x="0">|</tspan></text>
<text
         id="text32"
         style="font-variant:normal;font-weight:normal;font-size:9.96259975px;font-family:FontAwesome;-inkscape-font-specification:FontAwesome;writing-mode:lr-tb;fill:#000000;fill-opacity:1;fill-rule:nonzero;stroke:none"
         transform="matrix(1,0,0,-1,212.832,728.664)"><tspan
           id="tspan30"
           y="0"
           x="0">Ó</tspan></text>
<text
         id="text36"
         style="font-variant:normal;font-weight:normal;font-size:9.96259975px;font-family:Roboto;-inkscape-font-specification:Roboto-Regular;writing-mode:lr-tb;fill:#000000;fill-opacity:1;fill-rule:nonzero;stroke:none"
         transform="matrix(1,0,0,-1,220.652,728.664)"><tspan
           id="tspan34"
           y="0"
           x="0 4.8836665 10.477667 16.266933 21.860933 24.609615 30.203615 35.340332 41.031963 43.780647 49.374645 54.511364 60.105362">:403-479-2746</tspan></text>
<text
         id="text40"
         style="font-variant:normal;font-size:9.5642004px;font-family:MathDesign-CH-Regular-Symbol;-inkscape-font-specification:MathDesign-CH-Regular-Symbol-10;writing-mode:lr-tb;fill:#000000;fill-opacity:1;fill-rule:nonzero;stroke:none"
         transform="matrix(1,0,0,-1,288.815,728.664)"><tspan
           id="tspan38"
           y="0"
           x="0">|</tspan></text>
<text
         id="text44"
         style="font-variant:normal;font-weight:normal;font-size:9.96259975px;font-family:FontAwesome;-inkscape-font-specification:FontAwesome;writing-mode:lr-tb;fill:#000000;fill-opacity:1;fill-rule:nonzero;stroke:none"
         transform="matrix(1,0,0,-1,293.969,728.664)"><tspan
           id="tspan42"
           y="0"
           x="0"></tspan></text>
<text
         id="text48"
         style="font-variant:normal;font-weight:normal;font-size:9.96259975px;font-family:Roboto;-inkscape-font-specification:Roboto-Regular;writing-mode:lr-tb;fill:#000000;fill-opacity:1;fill-rule:nonzero;stroke:none"
         transform="matrix(1,0,0,-1,302.507,728.664)"><tspan
           id="tspan46"
           y="0"
           x="0 4.8836665 10.472685 12.890608 16.14539 21.63279 27.125172 32.714191 35.336346 40.55077 46.232441 54.964661 59.070248 61.449318 66.941696 72.078415 75.333199 77.751122 83.248482 86.707497 92.301498">:github.com/justinf34</tspan></text>
<text
         id="text52"
         style="font-variant:normal;font-size:9.5642004px;font-family:MathDesign-CH-Regular-Symbol;-inkscape-font-specification:MathDesign-CH-Regular-Symbol-10;writing-mode:lr-tb;fill:#000000;fill-opacity:1;fill-rule:nonzero;stroke:none"
         transform="matrix(1,0,0,-1,402.865,728.664)"><tspan
           id="tspan50"
           y="0"
           x="0">|</tspan></text>
<text
         id="text56"
         style="font-variant:normal;font-weight:normal;font-size:9.96259975px;font-family:FontAwesome;-inkscape-font-specification:FontAwesome;writing-mode:lr-tb;fill:#000000;fill-opacity:1;fill-rule:nonzero;stroke:none"
         transform="matrix(1,0,0,-1,408.02,728.664)"><tspan
           id="tspan54"
           y="0"
           x="0"></tspan></text>
<text
         id="text60"
         style="font-variant:normal;font-weight:normal;font-size:9.96259975px;font-family:Roboto;-inkscape-font-specification:Roboto-Regular;writing-mode:lr-tb;fill:#000000;fill-opacity:1;fill-rule:nonzero;stroke:none"
         transform="matrix(1,0,0,-1,416.558,728.664)"><tspan
           id="tspan58"
           y="0"
           x="0 5.2921333 7.7100563 10.127979 15.625341 20.574762 25.852947 31.471853 33.889778 39.387138 42.009296 47.223721 52.905392 61.637611 65.743195 68.161118 73.658485 77.764069 80.143143 85.635521 90.77224 94.027016 96.444939 101.94231 105.40132 110.99532">:linkedin.com/in/justinf34</tspan></text>
<text
         id="text64"
         style="font-variant:normal;font-weight:normal;font-size:11.9552002px;font-family:Roboto;-inkscape-font-specification:Roboto-Regular;writing-mode:lr-tb;fill:#000000;fill-opacity:1;fill-rule:nonzero;stroke:none"
         transform="matrix(1,0,0,-1,36,705.493)"><tspan
           id="tspan62"
           y="0"
           x="0 6.6877389 13.430471 20.021374 26.278725 32.781158 36.686924 39.588448 46.406498">Education</tspan></text>
<g
         transform="translate(36,701.109)"
         id="g66"><path
           id="path68"
           style="fill:none;stroke:#000000;stroke-width:0.398;stroke-linecap:butt;stroke-linejoin:miter;stroke-miterlimit:10;stroke-dasharray:none;stroke-opacity:1"
           d="M 0,0 H 540" /></g><text
         id="text72"
         style="font-variant:normal;font-weight:bold;font-size:10.90909958px;font-family:Roboto;-inkscape-font-specification:Roboto-Bold;writing-mode:lr-tb;fill:#000000;fill-opacity:1;fill-rule:nonzero;stroke:none"
         transform="matrix(1,0,0,-1,38.232,687.015)"><tspan
           id="tspan70"
           y="0"
           x="0 6.9621878 10.131281 16.837105 25.242567 28.134569 36.961121 44.098946 50.266953 59.71096 65.852783 71.957512 75.6437 81.54007 88.234985 94.940804 100.62991 103.5219 109.41827 115.52846 121.21755 127.11392 132.49319 142.04958 144.94157 151.05176 157.21977 163.91469 166.80669 175.63324 182.72307 188.57143 192.25761 200.82234 207.52817 213.21727 216.10927 222.00565 228.11583 233.80492">B.ScinComputerScience,MinorinDataScience</tspan></text>
<text
         id="text76"
         style="font-variant:normal;font-weight:normal;font-size:10.90909958px;font-family:Roboto;-inkscape-font-specification:Roboto-Regular;writing-mode:lr-tb;fill:#000000;fill-opacity:1;fill-rule:nonzero;stroke:none"
         transform="matrix(1,0,0,-1,439.336,687.015)"><tspan
           id="tspan74"
           y="0"
           x="0 6.4723692 12.25201 18.372015 21.936018 27.71566 37.277485 43.397491 49.177132 55.574226 61.699688 68.038963 72.774605 81.093887 86.809166 92.828804 98.842995 104.86263 113.33682 119.46228 125.80156 131.92702">September2017-June2022</tspan></text>
<text
         id="text80"
         style="font-style:italic;font-variant:normal;font-size:9.96259975px;font-family:Roboto;-inkscape-font-specification:Roboto-Italic;writing-mode:lr-tb;fill:#000000;fill-opacity:1;fill-rule:nonzero;stroke:none"
         transform="matrix(1,0,0,-1,38.232,673.466)"><tspan
           id="tspan78"
           y="0"
           x="0 6.3142958 11.694099 14.087116 18.75559 23.922195 27.23974 32.269859 34.662872 37.868839 44.931328 50.491451 56.337505 62.675713 67.982788 70.375809 75.848259 81.155342 84.562546 490.02899 496.36722 501.67429 504.06729 509.53976 514.84686 518.25403 522.35767 526.74414 533.09729">UniversityofCalgaryCalgary,AB</tspan></text>
<text
         id="text84"
         style="font-variant:normal;font-weight:normal;font-size:10.90909958px;font-family:Roboto;-inkscape-font-specification:Roboto-Regular;writing-mode:lr-tb;fill:#000000;fill-opacity:1;fill-rule:nonzero;stroke:none"
         transform="matrix(1,0,0,-1,49.943,657.547)"><tspan
           id="tspan82"
           y="0"
           x="0">•</tspan></text>
<text
         id="text88"
         style="font-variant:normal;font-weight:normal;font-size:10.90909958px;font-family:Roboto;-inkscape-font-specification:Roboto-Regular;writing-mode:lr-tb;fill:#000000;fill-opacity:1;fill-rule:nonzero;stroke:none"
         transform="matrix(1,0,0,-1,59.042,657.547)"><tspan
           id="tspan86"
           y="0"
           x="0 7.4312787 13.58292 20.698927 26.035658 32.161118 35.032394 41.157852 47.283314 51.778954 57.904411 60.775688 67.114967 73.454247 78.465881 85.620071 91.399712 97.333176 102.92736 104.50591 112.8361 118.70628 121.35392 126.97865 133.2372 136.96593 143.09138 149.43066 154.16631 160.29176 163.30159 169.42705 175.76633 180.50197 189.43979 198.91544 205.04089 211.38017 216.11581 222.34819 225.358 231.48346 237.82274 243.9482 250.28748">GPA:3.83/4.00;Dean’sList(2018-2019&amp;2019-2020)</tspan></text>
<text
         id="text92"
         style="font-variant:normal;font-weight:normal;font-size:11.9552002px;font-family:Roboto;-inkscape-font-specification:Roboto-Regular;writing-mode:lr-tb;fill:#000000;fill-opacity:1;fill-rule:nonzero;stroke:none"
         transform="matrix(1,0,0,-1,36,635.373)"><tspan
           id="tspan90"
           y="0"
           x="0 6.5598183 12.893683 19.151035 25.735958 32.33284 35.234364 41.491718 47.994152 53.848614 60.941631 67.000526 69.902054 72.803581 75.705109">TechnicalSkills</tspan></text>
<g
         transform="translate(36,630.989)"
         id="g94"><path
           id="path96"
           style="fill:none;stroke:#000000;stroke-width:0.398;stroke-linecap:butt;stroke-linejoin:miter;stroke-miterlimit:10;stroke-dasharray:none;stroke-opacity:1"
           d="M 0,0 H 540" /></g><text
         id="text100"
         style="font-variant:normal;font-weight:bold;font-size:10.90909958px;font-family:Roboto;-inkscape-font-specification:Roboto-Bold;writing-mode:lr-tb;fill:#000000;fill-opacity:1;fill-rule:nonzero;stroke:none"
         transform="matrix(1,0,0,-1,48.195,618.248)"><tspan
           id="tspan98"
           y="0"
           x="0 7.0363693 10.818555 16.986559 23.213474 27.039295 32.887665 42.331673 51.775681 54.667683 60.77787 69.721146 75.628426 81.476791 87.586983 93.813896 99.918633 105.767 111.99391 117.89028 123.49974">ProgrammingLanguages:</tspan></text>
<text
         id="text104"
         style="font-variant:normal;font-weight:normal;font-size:10.90909958px;font-family:Roboto;-inkscape-font-specification:Roboto-Regular;writing-mode:lr-tb;fill:#000000;fill-opacity:1;fill-rule:nonzero;stroke:none"
         transform="matrix(1,0,0,-1,177.922,618.248)"><tspan
           id="tspan102"
           y="0"
           x="0 6.0196414 11.876738 17.073832 23.007292 29.47966 35.189484 38.881123 41.528763 47.648766 51.212769 56.059685 63.018597 68.179695 71.743698 77.752426 83.973885 89.99353 94.840446 101.31281 108.81282 114.68301 119.52991 126.63065 131.1263 138.22702 144.41139 150.59576 155.43176 161.4514 167.3085 172.51651 178.44997 183.28596 190.91034 197.4198 206.94345 212.81363 217.30927 224.41 230.88237 237.35474 242.20166 248.99367 254.92712 260.55185">JavaScript,Python,SQL,C/C++,Java,HTML/CSS,Bash</tspan></text>
<text
         id="text108"
         style="font-variant:normal;font-weight:bold;font-size:10.90909958px;font-family:Roboto;-inkscape-font-specification:Roboto-Bold;writing-mode:lr-tb;fill:#000000;fill-opacity:1;fill-rule:nonzero;stroke:none"
         transform="matrix(1,0,0,-1,48.195,602.425)"><tspan
           id="tspan106"
           y="0"
           x="0 5.6367321 11.804737 17.972742 20.864744 26.474203">Tools:</tspan></text>
<text
         id="text112"
         style="font-variant:normal;font-weight:normal;font-size:10.90909958px;font-family:Roboto;-inkscape-font-specification:Roboto-Regular;writing-mode:lr-tb;fill:#000000;fill-opacity:1;fill-rule:nonzero;stroke:none"
         transform="matrix(1,0,0,-1,80.904,602.425)"><tspan
           id="tspan110"
           y="0"
           x="0 6.716733 12.496374 18.429834 24.139656 27.703659 32.550571 40.327671 46.549129 52.701862 58.481503 61.352779 63.95787 69.582603 74.41861 80.619339 86.025887 92.145897 95.739349 101.519 107.14372 112.76846 115.63973 118.24483 123.86956 128.70557 134.73502 137.38266 143.31612 148.94086 154.46959 159.3165 166.74777 169.39542 172.95941 177.80634 183.83578 186.48343 190.06598 195.84561 201.96562 207.89908 213.52382 219.30345 224.15038 230.17982 232.82747 236.42093 242.20056 248.32057 254.25403 259.87875 265.65842 270.49442 277.31149 283.53296 289.15768 292.72171 298.84171 302.43515 308.21481 314.68716 322.18716 328.05737 332.89337 338.76355 341.41119 347.43085 353.44501 358.85156 363.69849 370.85266 377.07413 382.78397 388.20358 393.98325 397.02032 401.86725 408.61234 418.29089">React,Node.js,Express.js,Flask,Git,Firebase,Firebase,PostgreSQL,Linux,Docker,AWS</tspan></text>
<text
         id="text116"
         style="font-variant:normal;font-weight:normal;font-size:11.9552002px;font-family:Roboto;-inkscape-font-specification:Roboto-Regular;writing-mode:lr-tb;fill:#000000;fill-opacity:1;fill-rule:nonzero;stroke:none"
         transform="matrix(1,0,0,-1,36,580.25)"><tspan
           id="tspan114"
           y="0"
           x="0 7.5425358 11.468623 18.286674 21.141575 27.475441 33.732792 37.638557">Projects</tspan></text>
<g
         transform="translate(36,575.867)"
         id="g118"><path
           id="path120"
           style="fill:none;stroke:#000000;stroke-width:0.398;stroke-linecap:butt;stroke-linejoin:miter;stroke-miterlimit:10;stroke-dasharray:none;stroke-opacity:1"
           d="M 0,0 H 540" /></g><text
         id="text124"
         style="font-variant:normal;font-weight:bold;font-size:10.90909958px;font-family:Roboto;-inkscape-font-specification:Roboto-Bold;writing-mode:lr-tb;fill:#000000;fill-opacity:1;fill-rule:nonzero;stroke:none"
         transform="matrix(1,0,0,-1,38.232,561.773)"><tspan
           id="tspan122"
           y="0"
           x="0 6.7058239 12.847647 19.015652 22.701838 25.59384 29.50366 37.696396 44.678219 50.526588 54.766956 58.45314">SpotifyParty</tspan></text>
<text
         id="text128"
         style="font-variant:normal;font-weight:normal;font-size:9.96259975px;font-family:FontAwesome;-inkscape-font-specification:FontAwesome;writing-mode:lr-tb;fill:#000000;fill-opacity:1;fill-rule:nonzero;stroke:none"
         transform="matrix(1,0,0,-1,48.195,548.224)"><tspan
           id="tspan126"
           y="0"
           x="0">®</tspan></text>
<text
         id="text132"
         style="font-style:italic;font-variant:normal;font-size:9.96259975px;font-family:Roboto;-inkscape-font-specification:Roboto-Italic;writing-mode:lr-tb;fill:#000000;fill-opacity:1;fill-rule:nonzero;stroke:none"
         transform="matrix(1,0,0,-1,59.882,548.224)"><tspan
           id="tspan130"
           y="0"
           x="0 5.472456 7.8654728 11.071438 16.442274 21.818094 27.29055 29.883816 34.991638 40.551765 49.06979 53.10265 55.456814 60.83263 65.862747 69.06871 71.461731 76.841537 80.24675 85.72419 91.201622 95.234489 101.01877 106.49123 112.05135 115.25732 117.65034 121.05555 125.6772 128.39201 134.48613 139.79321 143.34985 146.55582">github.com/justinf34/Spotify-Party</tspan></text>
<text
         id="text136"
         style="font-variant:normal;font-weight:normal;font-size:10.90909958px;font-family:Roboto;-inkscape-font-specification:Roboto-Regular;writing-mode:lr-tb;fill:#000000;fill-opacity:1;fill-rule:nonzero;stroke:none"
         transform="matrix(1,0,0,-1,49.943,530.291)"><tspan
           id="tspan134"
           y="0"
           x="0">•</tspan></text>
<text
         id="text142"
         style="font-variant:normal;font-weight:normal;font-size:10.90909958px;font-family:Roboto;-inkscape-font-specification:Roboto-Regular;writing-mode:lr-tb;fill:#000000;fill-opacity:1;fill-rule:nonzero;stroke:none"
         transform="matrix(1,0,0,-1,59.042,530.291)"><tspan
           id="tspan138"
           y="0"
           x="0 7.1541877 12.868375 18.076378 23.85602 26.503658 32.725117 38.845123 44.624763 53.482952 62.121868 70.320061 76.099701 84.914253 90.84771 96.96772 103.08772 105.73536 108.383 114.09282 120.02628 123.59029 126.23792 132.45938 141.18448 144.74849 150.75722 156.69067 162.94923 168.95796 175.17941 180.80415 184.36815 192.69835 195.34598 201.56744 207.68744 213.80745 216.45509 222.23473 230.56493 234.35255 240.57402 246.96021 252.9744 258.59912 264.37875 268.0704 276.4006 279.8555 288.78241 294.49225 300.50098 306.43445 312.69299 318.62643 324.64609 333.50427 336.15192 338.79956 344.42429 347.98828 353.76794 362.48212 365.94794 374.86395 378.42795 384.43668 392.92178 398.54651 404.47998 414.04181 422.51599 428.98834 435.10837 441.32983 444.89383 447.54147 451.3291 459.19565 464.82037 471.04184 477.06149 485.88696 491.9415">DevelopedawebapplicationthathostslobbiesforuserstochatandlistentothesameSpotifysongby</tspan><tspan
           id="tspan140"
           y="13.549"
           x="0 5.624732 10.785828 16.805468 22.515291 28.524023 32.106571 38.328033 44.347672 46.995312 52.401863 55.0495 61.069141 69.8946 75.828064 81.842247 87.99498 90.642624 99.558632 105.67863 108.32627 114.18336 119.34446 125.46447 131.39793 137.10776 145.34193 151.27541 156.98521 160.56776 166.78923 172.41396 180.74416 190.30597 196.32016 198.9678 202.5318 205.17944 211.29945 213.94708 222.42128 228.1311 230.77873 233.42638 239.20602 245.22566 248.78966 257.11984 263.34131 272.05551 275.61951 281.62823 290.11334 295.73807 301.67154 311.23334 319.71844 322.36609 328.58755 334.70755 340.76212 345.35593">synchronizingaudioplaybackacrossmultipleclientsonthesamelobby.</tspan></text>
<text
         id="text146"
         style="font-variant:normal;font-weight:normal;font-size:10.90909958px;font-family:Roboto;-inkscape-font-specification:Roboto-Regular;writing-mode:lr-tb;fill:#000000;fill-opacity:1;fill-rule:nonzero;stroke:none"
         transform="matrix(1,0,0,-1,49.943,500.919)"><tspan
           id="tspan144"
           y="0"
           x="0">•</tspan></text>
<text
         id="text150"
         style="font-variant:normal;font-weight:normal;font-size:10.90909958px;font-family:Roboto;-inkscape-font-specification:Roboto-Regular;writing-mode:lr-tb;fill:#000000;fill-opacity:1;fill-rule:nonzero;stroke:none"
         transform="matrix(1,0,0,-1,59.042,500.919)"><tspan
           id="tspan148"
           y="0"
           x="0 6.716733 12.496374 18.649107 24.663294 30.373116 36.152756 45.010948 54.572773 60.506233 63.15387 71.868057 77.49279 83.27243 87.062256 92.281166 98.060806 104.447 107.09464 113.31609 119.24956 128.10774 134.0412 140.06084 148.91904 155.07176 160.85141 166.56123 170.14378 175.92342 181.85687 187.48161 195.96671 202.11945 207.89908 210.54672 216.40382 224.25946 230.32492 238.18056 244.11403 249.73875 255.36348 258.01114 264.13113 270.15076 272.7984 278.81805 287.64352 293.65768 299.28244 305.06207 311.45917 317.39264 323.40683 326.97083 332.97955 338.75919 344.77884 348.34283 350.99048 356.70029 362.63376 366.19775 368.8454 375.06686 383.78104 387.23596 396.16287 402.09634 408.11597 414.33743 417.90143 423.91016 429.68982 436.07599 441.70074 447.48038 451.2702 456.48911 462.26874 465.30585">Reducedmainserverloadanddecreasedelaybyassigninguserauthenticationtoanotherserver.</tspan></text>
<text
         id="text154"
         style="font-variant:normal;font-weight:normal;font-size:10.90909958px;font-family:Roboto;-inkscape-font-specification:Roboto-Regular;writing-mode:lr-tb;fill:#000000;fill-opacity:1;fill-rule:nonzero;stroke:none"
         transform="matrix(1,0,0,-1,49.943,485.096)"><tspan
           id="tspan152"
           y="0"
           x="0">•</tspan></text>
<text
         id="text158"
         style="font-variant:normal;font-weight:bold;font-size:10.90909958px;font-family:Roboto;-inkscape-font-specification:Roboto-Bold;writing-mode:lr-tb;fill:#000000;fill-opacity:1;fill-rule:nonzero;stroke:none"
         transform="matrix(1,0,0,-1,59.042,485.096)"><tspan
           id="tspan156"
           y="0"
           x="0 6.2803688 12.176738 17.865833 23.970566 30.080751 36.248756 39.140759 45.308765 51.535679 54.427681 60.324051 68.649872 74.754608 80.364067 86.260437 92.407715">Technologiesused:</tspan></text>
<text
         id="text162"
         style="font-variant:normal;font-weight:normal;font-size:10.90909958px;font-family:Roboto;-inkscape-font-specification:Roboto-Regular;writing-mode:lr-tb;fill:#000000;fill-opacity:1;fill-rule:nonzero;stroke:none"
         transform="matrix(1,0,0,-1,157.674,485.096)"><tspan
           id="tspan160"
           y="0"
           x="0 6.716733 12.496374 18.429834 24.139656 27.703659 32.550571 38.580032 41.227673 44.810219 50.589859 56.709866 62.643326 68.268059 74.047699 78.894608 85.366982 91.58844 97.298264 102.7179 108.49754 112.06155 114.93282 117.58046 123.80192 128.64883 136.42593 142.64738 148.80013 154.57976 157.45103 160.05614 165.68086 170.51688 176.71761 182.12415 188.24416 191.83762 197.61725 203.24199 208.86671 211.73799 214.34309 219.96782 224.81473 231.28711 237.4071 243.62857 247.19257 249.84021 253.62785 261.48349 268.59949 275.48206">React,Firebase,Socket.io,Node.js,Express.js,SpotifyAPI</tspan></text>
<text
         id="text166"
         style="font-variant:normal;font-weight:bold;font-size:10.90909958px;font-family:Roboto;-inkscape-font-specification:Roboto-Bold;writing-mode:lr-tb;fill:#000000;fill-opacity:1;fill-rule:nonzero;stroke:none"
         transform="matrix(1,0,0,-1,38.232,461.143)"><tspan
           id="tspan164"
           y="0"
           x="0 7.1803699 13.348374 17.258196 27.112387 34.25021 40.418217 46.522949 50.501495 56.110954 64.723694 71.118607 77.286613 83.391342 89.80262 95.907356 102.04918 110.66191 117.69828 120.59028 126.35138 131.82774 134.71974 137.61176 143.22121 149.62376 156.76158 162.9296 172.3736 178.51543 181.40742 184.29942 190.1958">UofCCourseYouTubePlaylistCompiler</tspan></text>
<text
         id="text170"
         style="font-variant:normal;font-weight:normal;font-size:9.96259975px;font-family:FontAwesome;-inkscape-font-specification:FontAwesome;writing-mode:lr-tb;fill:#000000;fill-opacity:1;fill-rule:nonzero;stroke:none"
         transform="matrix(1,0,0,-1,48.195,447.594)"><tspan
           id="tspan168"
           y="0"
           x="0">®</tspan></text>
<text
         id="text174"
         style="font-style:italic;font-variant:normal;font-size:9.96259975px;font-family:Roboto;-inkscape-font-specification:Roboto-Italic;writing-mode:lr-tb;fill:#000000;fill-opacity:1;fill-rule:nonzero;stroke:none"
         transform="matrix(1,0,0,-1,59.882,447.594)"><tspan
           id="tspan172"
           y="0"
           x="0 5.472456 7.8654728 11.071438 16.442274 21.818094 27.29055 29.883816 34.991638 40.551765 49.06979 53.10265 55.456814 60.83263 65.862747 69.06871 71.461731 76.841537 80.24675 85.72419 91.201622 95.234489 102.17145 107.47852 112.58635 117.53378 122.84085 126.04681 131.41765 136.97778 142.35759 147.83502 153.50673 158.98416">github.com/justinf34/Hackathon2020</tspan></text>
<text
         id="text178"
         style="font-variant:normal;font-weight:normal;font-size:10.90909958px;font-family:Roboto;-inkscape-font-specification:Roboto-Regular;writing-mode:lr-tb;fill:#000000;fill-opacity:1;fill-rule:nonzero;stroke:none"
         transform="matrix(1,0,0,-1,49.943,429.661)"><tspan
           id="tspan176"
           y="0"
           x="0">•</tspan></text>
<text
         id="text184"
         style="font-variant:normal;font-weight:normal;font-size:10.90909958px;font-family:Roboto;-inkscape-font-specification:Roboto-Regular;writing-mode:lr-tb;fill:#000000;fill-opacity:1;fill-rule:nonzero;stroke:none"
         transform="matrix(1,0,0,-1,59.042,429.661)"><tspan
           id="tspan180"
           y="0"
           x="0 9.8105536 18.008741 23.788383 32.602936 38.536396 44.656403 50.776405 53.424046 56.071682 61.781506 67.714966 71.278969 73.926605 80.148064 88.851349 92.415352 98.42408 104.35754 110.61609 116.32591 122.54738 132.10921 138.2292 140.87685 143.52449 149.30412 157.6234 166.2514 172.37141 175.01906 180.86523 186.02634 188.67398 191.32161 196.94635 203.2049 209.42636 215.90854 222.11145 228.33292 234.34711 240.35475 246.36893 252.48894 260.96313 266.2475 268.89514 275.04785 280.82751 287.04898 295.36826 298.95081 304.73044 307.37808 313.31152 316.87555 322.65518 331.50247 334.95737 343.87338 352.50137 362.26938 368.49084 374.96213 384.75742 390.46722 396.68869 402.70288 406.39453 412.01926 417.79889 423.82291 426.79016 433.04874 439.16873 445.1022 448.79382 454.41855 460.19821 468.50656 477.13458 482.84439 489.06586 495.08005 498.7717 504.39642 509.75061 511.32916">AwebapplicationthatcompilesaplaylistofYouTubevideosrelatedtoaUofCcourse.Itparsesacourse’s</tspan><tspan
           id="tspan182"
           y="13.549"
           x="-0.414 7.7841887 13.563829 22.389292 28.509296 34.442757 40.562763 49.036949 52.491863 61.418777 67.459145 73.47879 82.336975 84.984619 88.548622 96.867897 102.28754 108.00172 115.86828 119.32319 125.54465 131.66466 134.3123 140.02211 148.3414 154.27486 160.29449 169.15268 175.16687 180.79161 189.2767 192.84071 198.84944 205.07089 210.69563 219.16982 222.62473 228.84619 234.9662 237.61383 243.32365 251.65384 255.10876 264.03568 269.6604 275.44003 281.3735 284.96698 290.67679 299.38007 303.16769 309.38916 315.78625 319.3688 325.14847 327.79608 333.72955 337.29355 343.07318 351.9314 358.13431 364.35574 370.36993 376.37759 382.39178 388.51178 396.99689 402.28125 404.92889 411.0816 416.86127 423.0827 428.70746">webpagetoﬁnditskeytopicsandusethosetopicstosearchforrelatedYouTubevideos.</tspan></text>
<text
         id="text188"
         style="font-variant:normal;font-weight:normal;font-size:10.90909958px;font-family:Roboto;-inkscape-font-specification:Roboto-Regular;writing-mode:lr-tb;fill:#000000;fill-opacity:1;fill-rule:nonzero;stroke:none"
         transform="matrix(1,0,0,-1,49.943,400.289)"><tspan
           id="tspan186"
           y="0"
           x="0">•</tspan></text>
<text
         id="text192"
         style="font-variant:normal;font-weight:normal;font-size:10.90909958px;font-family:Roboto;-inkscape-font-specification:Roboto-Regular;writing-mode:lr-tb;fill:#000000;fill-opacity:1;fill-rule:nonzero;stroke:none"
         transform="matrix(1,0,0,-1,59.042,400.289)"><tspan
           id="tspan190"
           y="0"
           x="0 6.716733 12.496374 18.649107 24.663294 30.373116 36.152756 45.010948 51.025135 56.649864 62.429508 68.815697 77.013885 82.947342 85.594978 91.864441 95.428444 98.07608 107.63791 113.41755 121.73683 127.80229 135.66884 141.82158 147.60121 153.22595 155.87358 161.99359 168.01323 170.66087 176.68051 185.49506 194.13399 200.25398 206.18744 211.89726 217.42599 220.43582 226.21545 232.23511 241.08238 244.64639 250.65512 256.58859 262.85803 268.56787 274.50131 280.21115 286.21988 291.99951 300.32971 303.91226 309.69189 315.31662 321.33081 323.97845 327.54245 335.87265 342.09412 348.57629 354.69629 358.28976 364.00394 369.2883 371.93594 378.15741 384.1716 392.49088 398.50507 404.12979 409.90942 413.60107 419.2258">Reduceduserwaittimesbydesigningaback-endthatcachesresultsofprevioususers.</tspan></text>
<text
         id="text196"
         style="font-variant:normal;font-weight:normal;font-size:10.90909958px;font-family:Roboto;-inkscape-font-specification:Roboto-Regular;writing-mode:lr-tb;fill:#000000;fill-opacity:1;fill-rule:nonzero;stroke:none"
         transform="matrix(1,0,0,-1,49.943,384.466)"><tspan
           id="tspan194"
           y="0"
           x="0">•</tspan></text>
<text
         id="text200"
         style="font-variant:normal;font-weight:bold;font-size:10.90909958px;font-family:Roboto;-inkscape-font-specification:Roboto-Bold;writing-mode:lr-tb;fill:#000000;fill-opacity:1;fill-rule:nonzero;stroke:none"
         transform="matrix(1,0,0,-1,59.042,384.466)"><tspan
           id="tspan198"
           y="0"
           x="0 6.2803688 12.176738 17.865833 23.970566 30.080751 36.248756 39.140759 45.308765 51.535679 54.427681 60.324051 68.649872 74.754608 80.364067 86.260437 92.407715">Technologiesused:</tspan></text>
<text
         id="text204"
         style="font-variant:normal;font-weight:normal;font-size:10.90909958px;font-family:Roboto;-inkscape-font-specification:Roboto-Regular;writing-mode:lr-tb;fill:#000000;fill-opacity:1;fill-rule:nonzero;stroke:none"
         transform="matrix(1,0,0,-1,157.674,384.466)"><tspan
           id="tspan202"
           y="0"
           x="0 6.0196414 11.876738 17.073832 23.007292 28.632025 34.341846 38.033485 40.681126 46.801128 50.365131 55.212048 62.836414 69.345879 78.869522 84.739708 89.235344 96.336082 102.80845 109.28082 114.11682 121.08665 126.24774 129.81174 135.82048 142.04193 148.06158 152.89758 158.92705 161.57468 167.50813 173.13287 178.66161 183.50851 189.53798 192.18561 195.77907 201.55872 207.67871 213.61218 219.23691 225.01656 229.85255 236.60857 246.28711">Javascript,HTML/CSS,Python,Flask,Firebase,AWS</tspan></text>
<text
         id="text208"
         style="font-variant:normal;font-weight:bold;font-size:10.90909958px;font-family:Roboto;-inkscape-font-specification:Roboto-Bold;writing-mode:lr-tb;fill:#000000;fill-opacity:1;fill-rule:nonzero;stroke:none"
         transform="matrix(1,0,0,-1,38.232,360.513)"><tspan
           id="tspan206"
           y="0"
           x="0 7.1378241 10.029826 12.921829 19.032017 21.924019 30.329479 36.225849 43.188038 49.356041 55.524048 61.351688 64.24369 70.353874">CliniceBooking</tspan></text>
<text
         id="text212"
         style="font-variant:normal;font-weight:normal;font-size:9.96259975px;font-family:FontAwesome;-inkscape-font-specification:FontAwesome;writing-mode:lr-tb;fill:#000000;fill-opacity:1;fill-rule:nonzero;stroke:none"
         transform="matrix(1,0,0,-1,48.195,346.963)"><tspan
           id="tspan210"
           y="0"
           x="0">®</tspan></text>
<text
         id="text216"
         style="font-style:italic;font-variant:normal;font-size:9.96259975px;font-family:Roboto;-inkscape-font-specification:Roboto-Italic;writing-mode:lr-tb;fill:#000000;fill-opacity:1;fill-rule:nonzero;stroke:none"
         transform="matrix(1,0,0,-1,59.882,346.963)"><tspan
           id="tspan214"
           y="0"
           x="0 5.472456 7.8654728 11.071438 16.442274 21.818094 27.29055 29.883816 34.991638 40.551765 49.06979 53.10265 55.456814 60.83263 65.862747 69.06871 71.461731 76.841537 80.24675 85.72419 91.201622 95.234489 100.40109 106.46732 112.02744 117.58757 122.535 124.92802 130.30782">github.com/justinf34/eBooking</tspan></text>
<text
         id="text220"
         style="font-variant:normal;font-weight:normal;font-size:10.90909958px;font-family:Roboto;-inkscape-font-specification:Roboto-Regular;writing-mode:lr-tb;fill:#000000;fill-opacity:1;fill-rule:nonzero;stroke:none"
         transform="matrix(1,0,0,-1,49.943,329.031)"><tspan
           id="tspan218"
           y="0"
           x="0">•</tspan></text>
<text
         id="text224"
         style="font-variant:normal;font-weight:normal;font-size:10.90909958px;font-family:Roboto;-inkscape-font-specification:Roboto-Regular;writing-mode:lr-tb;fill:#000000;fill-opacity:1;fill-rule:nonzero;stroke:none"
         transform="matrix(1,0,0,-1,59.042,329.031)"><tspan
           id="tspan222"
           y="0"
           x="0 9.8214626 18.019651 23.799292 32.613846 38.547306 44.667309 50.787315 53.434952 56.082592 61.792416 67.725876 71.289879 73.937515 80.158974 88.884071 92.671715 98.893173 105.27936 111.39937 117.33282 120.89683 123.54446 129.32411 135.34375 138.90775 147.23795 150.69286 159.61977 165.73978 171.96123 178.18269 186.40598 192.33943 198.35907 207.21727 216.77908 222.71255 228.73219 234.66565 240.78566 249.27075 252.83476 258.84348 264.62314 267.27078 273.65695 278.94131 281.58896 287.21368 289.86133 293.42532 301.75552 309.9537 312.60135 316.16534 322.17407 328.39554 334.40973 340.66827 344.2323 350.24103 358.7261 364.74576 370.52539 376.30505 385.16324 391.3847 397.86688 406.5058 410.08835 415.86798 421.57782 427.35745 433.47745 437.04144 439.68909 445.91055 451.93021 454.57782 460.20258 463.76657">Awebapplicationforpatientstobookandmanagetheirvisitswithouttheneedofareceptionist.</tspan></text>
<text
         id="text228"
         style="font-variant:normal;font-weight:normal;font-size:10.90909958px;font-family:Roboto;-inkscape-font-specification:Roboto-Regular;writing-mode:lr-tb;fill:#000000;fill-opacity:1;fill-rule:nonzero;stroke:none"
         transform="matrix(1,0,0,-1,49.943,313.208)"><tspan
           id="tspan226"
           y="0"
           x="0">•</tspan></text>
<text
         id="text232"
         style="font-variant:normal;font-weight:normal;font-size:10.90909958px;font-family:Roboto;-inkscape-font-specification:Roboto-Regular;writing-mode:lr-tb;fill:#000000;fill-opacity:1;fill-rule:nonzero;stroke:none"
         transform="matrix(0.987,0,0,-1,59.042,313.208)"><tspan
           id="tspan230"
           y="0"
           x="0 2.9672751 12.529101 18.649107 22.231655 28.376751 33.584755 39.364395 48.255314 53.880043 59.041142 64.665871 68.229874 74.009514 86.309525 91.934258 97.713898 103.42372 109.43791 113.12955 115.77719 119.34119 127.24047 133.29501 141.19431 143.84193 149.86157 153.42558 159.20523 165.32523 168.8096 174.74306 178.30705 180.9547 186.97433 195.82162 204.49326 210.20308 216.42455 222.646 228.17473 230.82237 236.60202 239.61183 245.73184 251.6653 257.29004 263.06967 271.9606 277.89404 283.90823 287.47223 293.48096 299.26062 305.28024 308.84427 311.49188 317.20172 323.13519 326.69919 329.34683 335.56827 344.32611 347.78101 356.74066 359.38831 365.54105 371.32068 377.3403 380.90433 383.55194 387.3396 395.23886 398.80289 404.81161 413.32944 418.95416 424.7338 430.35855 435.98328 438.63092 444.85236 453.59927 459.82074 468.01892 474.03857 479.81821 482.85532 488.91205 496.02805 504.39096 512.58917 518.36877 521.01642">Improvedsystemsecuritybyintegratingacookie-basedauthenticationtoidentifythesessionowner.Aswell</tspan></text>
<text
         id="text236"
         style="font-variant:normal;font-weight:normal;font-size:10.90909958px;font-family:Roboto;-inkscape-font-specification:Roboto-Regular;writing-mode:lr-tb;fill:#000000;fill-opacity:1;fill-rule:nonzero;stroke:none"
         transform="matrix(1,0,0,-1,59.042,299.658)"><tspan
           id="tspan234"
           y="0"
           x="0 5.9334593 14.263648 20.272381 26.205839 31.830572 37.839306 43.618946 52.466225 58.586231 64.519691 70.144424 75.769157 83.967346 90.188805 93.782257 99.93499 108.26518 114.19864 120.21828 129.06557 131.7132 137.73285 143.85284 149.86703 156.13649 161.76123 167.69469 173.71432 176.36197 179.92596 182.57361 187.98016 193.91362 197.47762 200.12526 206.34671 215.06091 218.52673 227.44273 233.56274 237.1562 242.87038 248.07838 253.85803 259.87769 266.14713 272.61951 280.11951 288.68423 291.33188 297.35153 299.9566 305.73627 311.44608 315.01007 317.65771 323.87918 332.60428 338.53775 342.10175 345.66574 351.59921 357.30902 362.83777 368.46249">ashashedpasswordsandinputsanitizationtopreventSQLinjectionattacks.</tspan></text>
<text
         id="text240"
         style="font-variant:normal;font-weight:normal;font-size:10.90909958px;font-family:Roboto;-inkscape-font-specification:Roboto-Regular;writing-mode:lr-tb;fill:#000000;fill-opacity:1;fill-rule:nonzero;stroke:none"
         transform="matrix(1,0,0,-1,49.943,283.836)"><tspan
           id="tspan238"
           y="0"
           x="0">•</tspan></text>
<text
         id="text246"
         style="font-variant:normal;font-weight:normal;font-size:10.90909958px;font-family:Roboto;-inkscape-font-specification:Roboto-Regular;writing-mode:lr-tb;fill:#000000;fill-opacity:1;fill-rule:nonzero;stroke:none"
         transform="matrix(1,0,0,-1,59.042,283.836)"><tspan
           id="tspan242"
           y="0"
           x="0 7.1541877 12.933829 18.558561 21.2062 27.326204 33.345844 39.125488 45.278221 50.125134 52.77277 62.334599 68.454605 71.102242 76.881882 86.44371 92.223351 98.242989 101.80699 107.58663 113.73936 118.57537 124.50883 130.52847 139.38666 142.95067 148.7303 154.35504 157.91904 163.69868 172.54596 181.18488 184.77834 190.55798 193.20561 199.13907 202.70308 205.35072 211.57217 217.59181 223.52528 228.86746 235.0202 240.95366 244.51765 250.45111 256.57114 262.50458 268.1293 276.61441 282.54788 288.5675 297.42569 306.05371 312.17371 318.10718 323.81699 329.34573 332.35556 338.13519 344.15485 353.01303 358.63776 364.41739 368.20721 373.41522 379.19485 385.59195 389.04688 397.97379 401.76141 407.69489 413.40469 416.05234 418.69998 421.34763 424.91162 430.84509 434.40909 442.88327 448.508 454.21783 460.22656 466.0062 472.15894 478.17313 480.82077 483.46841 489.48804 498.31351 504.53497">Designed,implemented,andtestedarelationaldatabaseandaback-endservertofacilitateschedulingof</tspan><tspan
           id="tspan244"
           y="13.55"
           x="0 5.9334593 12.053465 18.17347 24.39493 27.042568 33.06221 36.626213 46.188038 51.967678 57.98732 61.551323 69.881516 75.814972 81.83461 90.681892 96.690628 102.62408 108.64373 114.79646 117.4441 120.09174 126.11138 134.93684 140.95102 146.57576 152.35539 158.74159 162.33504 168.11469 174.31541 180.32961 186.10925 191.73398 195.29797 200.92271">appointmentsandhandlinguserrequests.</tspan></text>
<text
         id="text250"
         style="font-variant:normal;font-weight:normal;font-size:10.90909958px;font-family:Roboto;-inkscape-font-specification:Roboto-Regular;writing-mode:lr-tb;fill:#000000;fill-opacity:1;fill-rule:nonzero;stroke:none"
         transform="matrix(1,0,0,-1,49.943,254.464)"><tspan
           id="tspan248"
           y="0"
           x="0">•</tspan></text>
<text
         id="text254"
         style="font-variant:normal;font-weight:bold;font-size:10.90909958px;font-family:Roboto;-inkscape-font-specification:Roboto-Bold;writing-mode:lr-tb;fill:#000000;fill-opacity:1;fill-rule:nonzero;stroke:none"
         transform="matrix(1,0,0,-1,59.042,254.464)"><tspan
           id="tspan252"
           y="0"
           x="0 6.2803688 12.176738 17.865833 23.970566 30.080751 36.248756 39.140759 45.308765 51.535679 54.427681 60.324051 68.649872 74.754608 80.364067 86.260437 92.407715">Technologiesused:</tspan></text>
<text
         id="text258"
         style="font-variant:normal;font-weight:normal;font-size:10.90909958px;font-family:Roboto;-inkscape-font-specification:Roboto-Regular;writing-mode:lr-tb;fill:#000000;fill-opacity:1;fill-rule:nonzero;stroke:none"
         transform="matrix(1,0,0,-1,157.674,254.464)"><tspan
           id="tspan256"
           y="0"
           x="0 6.0196414 11.876738 17.073832 23.007292 28.632025 34.341846 38.033485 40.681126 46.801128 50.365131 55.212048 57.817139 65.317146 71.331329 77.11097 80.900795 85.494614 90.33062 97.954994 104.46445 113.9881 119.85828 124.35392 131.45465 137.92702 144.3994 149.24631 155.99141 165.66995 174.84778 181.04851 188.14925 194.2747 199.11072 206.8878 213.10927 219.26199 225.04164 227.91292 230.51801 236.14275 240.98965 247.19038 252.59694 258.71695 262.2995 268.07913 273.70386 279.32858 282.19986 284.80496">Javascript,jQuery,HTML/CSS,AWSEC2,Node.js,Express.js</tspan></text>
<text
         id="text262"
         style="font-variant:normal;font-weight:bold;font-size:10.90909958px;font-family:Roboto;-inkscape-font-specification:Roboto-Bold;writing-mode:lr-tb;fill:#000000;fill-opacity:1;fill-rule:nonzero;stroke:none"
         transform="matrix(1,0,0,-1,38.232,230.51)"><tspan
           id="tspan260"
           y="0"
           x="0 7.2861881 13.390921 16.913469 25.79784 33.229118 39.077488 43.056034 49.197861 55.046227 61.273144 69.88588 76.591698 82.759705 87.000076 90.686256 96.582626">AutoGarbageSorter</tspan></text>
<text
         id="text266"
         style="font-variant:normal;font-weight:normal;font-size:9.96259975px;font-family:FontAwesome;-inkscape-font-specification:FontAwesome;writing-mode:lr-tb;fill:#000000;fill-opacity:1;fill-rule:nonzero;stroke:none"
         transform="matrix(1,0,0,-1,48.195,216.961)"><tspan
           id="tspan264"
           y="0"
           x="0">®</tspan></text>
<text
         id="text270"
         style="font-style:italic;font-variant:normal;font-size:9.96259975px;font-family:Roboto;-inkscape-font-specification:Roboto-Italic;writing-mode:lr-tb;fill:#000000;fill-opacity:1;fill-rule:nonzero;stroke:none"
         transform="matrix(1,0,0,-1,59.882,216.961)"><tspan
           id="tspan268"
           y="0"
           x="0 5.472456 7.8654728 11.071438 16.442274 21.818094 27.29055 29.883816 34.991638 40.551765 49.06979 53.10265 55.456814 60.83263 65.862747 69.06871 71.461731 76.841537 80.24675 85.72419 91.201622 95.234489 101.01877 109.5368 114.84387 118.40052 121.60648 126.01394 132.64404 137.95113 141.26868 146.74113 152.0482 157.52066 162.68727 167.09473 172.36493 175.58286 181.14297 186.52278 189.72874 194.89536 200.27516">github.com/justinf34/Smart_Garbage_Frontend</tspan></text>
<text
         id="text274"
         style="font-variant:normal;font-weight:normal;font-size:10.90909958px;font-family:Roboto;-inkscape-font-specification:Roboto-Regular;writing-mode:lr-tb;fill:#000000;fill-opacity:1;fill-rule:nonzero;stroke:none"
         transform="matrix(1,0,0,-1,49.943,199.028)"><tspan
           id="tspan272"
           y="0"
           x="0">•</tspan></text>
<text
         id="text278"
         style="font-variant:normal;font-weight:normal;font-size:10.90909958px;font-family:Roboto;-inkscape-font-specification:Roboto-Regular;writing-mode:lr-tb;fill:#000000;fill-opacity:1;fill-rule:nonzero;stroke:none"
         transform="matrix(1,0,0,-1,59.042,199.028)"><tspan
           id="tspan276"
           y="0"
           x="0 9.8214626 19.383289 25.604748 31.724754 34.372391 37.020031 45.494221 51.427681 57.547684 63.66769 66.315331 68.962967 74.672791 80.606247 84.17025 86.817894 93.039352 101.76445 105.32845 111.33718 117.27065 123.52919 129.54338 133.10738 135.75502 138.40266 141.05029 146.38049 152.16013 160.4794 166.10414 175.66597 181.59943 185.5638 189.12779 195.2478 201.25653 207.478 213.49763 221.97182 227.68164 233.6151 243.17693 248.95657 252.44093 258.37439 266.69366 272.62714 278.64679 287.50497 297.0668 303.00024 308.71008 314.71881 317.36646 323.38608 331.86029 334.5079 340.28757 346.22101 349.91266 355.93228 358.57993 364.59958 373.42505 376.87994 385.80685 391.51669 394.16434 400.09778 405.72253 411.34726 413.9949 417.78253 425.63818 429.23163 435.01126 440.7211 445.81674 451.52655 454.17419 460.10767 466.22766 468.87531 477.34949 483.28296 489.30258">Amobileapplicationthatutilizessmartphonecamerasandmachinelearningtoclassifyrecyclableand</tspan></text>
<text
         id="text282"
         style="font-variant:normal;font-weight:normal;font-size:10.90909958px;font-family:Roboto;-inkscape-font-specification:Roboto-Regular;writing-mode:lr-tb;fill:#000000;fill-opacity:1;fill-rule:nonzero;stroke:none"
         transform="matrix(0.986,0,0,-1,59.042,185.479)"><tspan
           id="tspan280"
           y="0"
           x="0 5.7098231 11.931283 21.493109 27.613113 33.834572 39.459305 43.023308 48.956768 55.076775 57.724411 66.231331 74.42952 80.362976 85.987709 89.551712 98.047722 104.16772 107.76118 113.98264 120.13538 126.14956 131.85938 135.42339 141.04811 147.10484 153.82158 159.60123 165.22595 171.34596 177.56741 183.58707 189.21179 191.85944 197.97943 200.62708 209.13399 212.92163 219.1431 225.5511 231.70383 237.48347 243.1082 245.75584 251.87584 257.89548 260.54312 266.56277 275.41003 281.34351 287.36316 296.24316 302.39587 308.11008 313.31808 319.09772 321.74536 327.96683 334.08682 336.73447 342.75409 351.60138 355.16537 361.17413 369.68103 373.46869 377.05121 383.27267 389.29233 392.85632 395.86615 401.64578 407.66544 416.53452 422.24435 428.46582 438.02765 444.14764 450.36911 456.38873 462.1684 468.18802 474.47931 480.70078 487.21567 490.77969 496.78842 505.29532 511.22879 517.34882 523.46881">compostablewasteproducts.Responsiblefordesigninganddevelopingthefront-endcomponentoftheapp.</tspan></text>
<text
         id="text286"
         style="font-variant:normal;font-weight:normal;font-size:10.90909958px;font-family:Roboto;-inkscape-font-specification:Roboto-Regular;writing-mode:lr-tb;fill:#000000;fill-opacity:1;fill-rule:nonzero;stroke:none"
         transform="matrix(1,0,0,-1,49.943,169.656)"><tspan
           id="tspan284"
           y="0"
           x="0">•</tspan></text>
<text
         id="text290"
         style="font-variant:normal;font-weight:normal;font-size:10.90909958px;font-family:Roboto;-inkscape-font-specification:Roboto-Regular;writing-mode:lr-tb;fill:#000000;fill-opacity:1;fill-rule:nonzero;stroke:none"
         transform="matrix(1,0,0,-1,59.042,169.656)"><tspan
           id="tspan288"
           y="0"
           x="0 6.50946 12.518192 15.165831 23.496019 29.616024 33.198574 39.420033 42.025127 47.804768 53.514591 59.77314 67.971329 74.192787 82.917885 89.04335 93.778984 100.11826 109.163 111.81064 120.52483 126.64484 130.33647 132.98412 138.30339 144.08302 152.41322 158.34668 164.61613 168.18015 174.18887 182.66306 189.76379 195.98526 202.13799 210.62308 217.13254 223.14128 231.61546 238.7162 244.72493 250.65839 256.67804 262.79803 271.28314 279.06024 284.99368 290.70352 296.23224 302.16571 305.72971 311.73843 317.9599 323.97955 330.00354 337.15775 343.37918 349.39883 355.33231 358.8963 364.67593 373.53412 376.98904 385.90506 393.05923 399.2807 404.99051 408.45633 414.6778 418.36945 426.68872 436.36728 439.01492 442.57892 448.58765 454.80911 460.8233 467.09274 473.88477 480.10623 483.68878 489.84149 495.62115 499.31277 504.9375">Thisprojectwon$100inprizesattheCodeTheChangeHackathon.DonatedtoDoctorsWithoutBorders.</tspan></text>
<text
         id="text294"
         style="font-variant:normal;font-weight:normal;font-size:10.90909958px;font-family:Roboto;-inkscape-font-specification:Roboto-Regular;writing-mode:lr-tb;fill:#000000;fill-opacity:1;fill-rule:nonzero;stroke:none"
         transform="matrix(1,0,0,-1,49.943,153.833)"><tspan
           id="tspan292"
           y="0"
           x="0">•</tspan></text>
<text
         id="text298"
         style="font-variant:normal;font-weight:bold;font-size:10.90909958px;font-family:Roboto;-inkscape-font-specification:Roboto-Bold;writing-mode:lr-tb;fill:#000000;fill-opacity:1;fill-rule:nonzero;stroke:none"
         transform="matrix(1,0,0,-1,59.042,153.833)"><tspan
           id="tspan296"
           y="0"
           x="0 6.2803688 12.176738 17.865833 23.970566 30.080751 36.248756 39.140759 45.308765 51.535679 54.427681 60.324051 68.649872 74.754608 80.364067 86.260437 92.407715">Technologiesused:</tspan></text>
<text
         id="text302"
         style="font-variant:normal;font-weight:normal;font-size:10.90909958px;font-family:Roboto;-inkscape-font-specification:Roboto-Regular;writing-mode:lr-tb;fill:#000000;fill-opacity:1;fill-rule:nonzero;stroke:none"
         transform="matrix(1,0,0,-1,157.674,153.833)"><tspan
           id="tspan300"
           y="0"
           x="0 6.716733 12.496374 18.429834 24.139656 30.409117 38.186214 44.119675 47.683678 50.331314 55.539318 61.318962 66.165871 72.366608 77.773155 83.893158">ReactNative,Expo</tspan></text>
<text
         id="text306"
         style="font-variant:normal;font-weight:normal;font-size:11.9552002px;font-family:Roboto;-inkscape-font-specification:Roboto-Regular;writing-mode:lr-tb;fill:#000000;fill-opacity:1;fill-rule:nonzero;stroke:none"
         transform="matrix(1,0,0,-1,36,131.659)"><tspan
           id="tspan304"
           y="0"
           x="0 7.6070938 16.591427 23.093861 27.031902 33.774635 42.89167 53.287914 61.086288 67.343643 73.928566 76.830093 83.080269 88.799637 95.133507 105.61224 111.9461 118.54298 122.44875">Awards&amp;Achievements</tspan></text>
<g
         transform="translate(36,127.275)"
         id="g308"><path
           id="path310"
           style="fill:none;stroke:#000000;stroke-width:0.398;stroke-linecap:butt;stroke-linejoin:miter;stroke-miterlimit:10;stroke-dasharray:none;stroke-opacity:1"
           d="M 0,0 H 540" /></g><text
         id="text314"
         style="font-variant:normal;font-weight:normal;font-size:10.90909958px;font-family:Roboto;-inkscape-font-specification:Roboto-Regular;writing-mode:lr-tb;fill:#000000;fill-opacity:1;fill-rule:nonzero;stroke:none"
         transform="matrix(1,0,0,-1,49.943,110.907)"><tspan
           id="tspan312"
           y="0"
           x="0">•</tspan></text>
<text
         id="text318"
         style="font-variant:normal;font-weight:normal;font-size:10.90909958px;font-family:Roboto;-inkscape-font-specification:Roboto-Regular;writing-mode:lr-tb;fill:#000000;fill-opacity:1;fill-rule:nonzero;stroke:none"
         transform="matrix(1,0,0,-1,59.042,110.907)"><tspan
           id="tspan316"
           y="0"
           x="0 6.8280058 12.761465 16.714924 20.278927 22.926565 28.636387 31.284025 37.40403 43.33749 46.901493 52.681133 61.539326 64.186966 72.901154 76.465157 82.473885 90.958984 96.988441 99.636086 103.32772 108.95245 115.21101 121.42483 127.20447 133.13792 139.52411 145.99649 151.70631 157.71504 163.93649 166.58414 172.51759 176.20924 184.53943 190.65944 194.24197 200.46344 206.58345 210.06781 216.00127 228.25764 232.04529 238.26674 244.66383 250.59731 256.30713 262.24057 268.39331 274.17294 283.73477 286.38242 292.09225 298.0257 300.67334 303.32098 311.17664 317.18536 319.83301 325.953 331.96173 334.97156 340.905 346.61484 352.62357 355.27121 360.98538 366.26974 368.91739 374.93704 383.76251 386.41013 392.42978 398.13962 404.36105 413.92288 416.57053 422.59018 431.40472 437.02945 440.59344 446.60764 452.76038 458.54001 464.55966 468.12366 473.74838">ParticipatedintheFirstYearScholarsprogramforacademicallyhigh-achievingincomingstudents.</tspan></text>
<text
         id="text322"
         style="font-variant:normal;font-weight:normal;font-size:10.90909958px;font-family:Roboto;-inkscape-font-specification:Roboto-Regular;writing-mode:lr-tb;fill:#000000;fill-opacity:1;fill-rule:nonzero;stroke:none"
         transform="matrix(1,0,0,-1,49.943,95.084)"><tspan
           id="tspan320"
           y="0"
           x="0">•</tspan></text>
<text
         id="text326"
         style="font-variant:normal;font-weight:normal;font-size:10.90909958px;font-family:Roboto;-inkscape-font-specification:Roboto-Regular;writing-mode:lr-tb;fill:#000000;fill-opacity:1;fill-rule:nonzero;stroke:none"
         transform="matrix(1,0,0,-1,59.042,95.084)"><tspan
           id="tspan324"
           y="0"
           x="0 9.5236444 15.303286 24.865112 30.985117 36.764759 43.161854 49.383312 55.865501 59.429504 65.43824 73.923332 80.996796 87.016434 89.664078 94.882988 100.66263 104.35427 109.979 112.62664 116.19064 124.04629 130.26775 136.76083 143.86157 149.79503 152.44267 158.56268 164.49614 168.28596 176.1416 183.24234 189.46379 199.02562 205.14563 210.92526 214.48927 217.1369 220.70091 223.34856 228.56746 237.04166 243.92421 247.51765 253.73912 259.85913 263.33258 269.26605 278.82788 288.38971 291.03732 297.05698 305.88245 312.98318 315.6308 321.64499 327.76501">MemberoftheUniversityofCalgaryCompetitiveProgrammingClub.</tspan></text>
<text
         id="text330"
         style="font-variant:normal;font-weight:normal;font-size:10.90909958px;font-family:Roboto;-inkscape-font-specification:Roboto-Regular;writing-mode:lr-tb;fill:#000000;fill-opacity:1;fill-rule:nonzero;stroke:none"
         transform="matrix(1,0,0,-1,49.943,79.261)"><tspan
           id="tspan328"
           y="0"
           x="0">•</tspan></text>
<text
         id="text334"
         style="font-variant:normal;font-weight:normal;font-size:10.90909958px;font-family:Roboto;-inkscape-font-specification:Roboto-Regular;writing-mode:lr-tb;fill:#000000;fill-opacity:1;fill-rule:nonzero;stroke:none"
         transform="matrix(1,0,0,-1,59.042,79.261)"><tspan
           id="tspan332"
           y="0"
           x="0 6.716733 12.496374 18.206198 23.985838 26.633476 31.85239 37.63203 46.479313 50.043316 56.052048">Receivedthe</tspan></text>
<text
         id="text338"
         style="font-style:italic;font-variant:normal;font-size:10.90909958px;font-family:Roboto;-inkscape-font-specification:Roboto-Italic;writing-mode:lr-tb;fill:#000000;fill-opacity:1;fill-rule:nonzero;stroke:none"
         transform="matrix(1,0,0,-1,123.578,79.261)"><tspan
           id="tspan336"
           y="0"
           x="0 6.6621876 12.319647 18.408016 24.400385 27.02075 32.252754 33.820393 42.001125 48.941494 54.82259 60.910961 63.531326 69.12442 77.454613 84.236801 92.242989 98.05426 101.58881">People’sChoiceAward</tspan></text>
<text
         id="text342"
         style="font-variant:normal;font-weight:normal;font-size:10.90909958px;font-family:Roboto;-inkscape-font-specification:Roboto-Regular;writing-mode:lr-tb;fill:#000000;fill-opacity:1;fill-rule:nonzero;stroke:none"
         transform="matrix(1,0,0,-1,233.943,79.261)"><tspan
           id="tspan340"
           y="0"
           x="0 2.6476386 11.372737 14.93674 20.945473 29.419661 36.520393 42.741856 48.894585 57.379684 60.943687 66.952423 75.426605 82.527344 88.536072 94.469536 100.48917 106.60918 115.09428 122.87138 128.80484 134.51466 140.0434 145.97685 149.54085 155.54959 161.77104 170.49614 176.50487 182.72633 188.35106 191.91507 197.69472 206.54199 212.60745 220.46309 227.2551 233.03474 239.05438 244.76857 250.05293 252.70058 256.26459 260.8584">intheCodetheChangeHackathonhostedbyBenevity.</tspan></text>
</g></g></svg>